<?xml version="1.0" encoding="utf-8"?>
<!-- Generator: Adobe Illustrator 22.1.0, SVG Export Plug-In . SVG Version: 6.00 Build 0)  -->
<svg version="1.1" id="Layer_1" xmlns="http://www.w3.org/2000/svg" xmlns:xlink="http://www.w3.org/1999/xlink" x="0px" y="0px"
	 viewBox="0 0 256 256" style="enable-background:new 0 0 256 256;" xml:space="preserve">
<style type="text/css">
	.st0{fill:#D73735;}
	.st1{fill:#F85252;}
	.st2{fill:#EDAF85;}
	.st3{fill:#F7C09A;}
	.st4{fill:#D8D6D7;}
	.st5{fill:#FFFFFF;}
	.st6{fill:#1C868E;}
	.st7{fill:#40C4DF;}
	.st8{fill:#491352;}
	.st9{fill:#56C1B3;}
	.st10{fill:#7BEFE4;}
</style>
<g>
	<path class="st6" d="M229.539,60.048v124.4H26.459v-124.4c0-8.87,6.64-16.2,15.23-17.26c0.71-0.09,1.44-0.14,2.17-0.14h168.28
		C221.749,42.648,229.539,50.438,229.539,60.048z"/>
	<path class="st7" d="M229.539,60.048v124.4H41.689V42.788c0.71-0.09,1.44-0.14,2.17-0.14h168.28
		C221.749,42.648,229.539,50.438,229.539,60.048z"/>
	<path class="st9" d="M251.599,190.518v4.67c0,10.06-8.15,18.22-18.21,18.22H22.609c-10.06,0-18.21-8.16-18.21-18.22v-4.67
		c0-3.35,2.72-6.07,6.07-6.07h235.06C248.879,184.448,251.599,187.168,251.599,190.518z"/>
	<path class="st10" d="M251.599,190.518v4.67c0,10.06-8.15,18.22-18.21,18.22H37.839c-10.06,0-18.21-8.16-18.21-18.22v-4.67
		c0-3.35,2.72-6.07,6.07-6.07h219.83C248.879,184.448,251.599,187.168,251.599,190.518z"/>
	<path class="st4" d="M218.749,58.448v126h-181.5v-126c0-2.57,1.94-4.69,4.44-4.96c0.18-0.03,0.37-0.04,0.56-0.04h171.5
		C216.509,53.448,218.749,55.688,218.749,58.448z"/>
	<path class="st5" d="M218.749,58.448v126H52.479v-131h161.27C216.509,53.448,218.749,55.688,218.749,58.448z"/>
	<path class="st7" d="M229.539,60.048v124.4h-10.79v-126c0-2.76-2.24-5-5-5h-171.5c-0.19,0-0.38,0.01-0.56,0.04v-10.7
		c0.71-0.09,1.44-0.14,2.17-0.14h168.28C221.749,42.648,229.539,50.438,229.539,60.048z"/>
	<path class="st9" d="M156.328,184.574v5.111c0,5.172-4.201,9.373-9.373,9.373h-37.515c-5.172,0-9.373-4.201-9.373-9.373v-5.111
		H156.328z"/>
	<path class="st10" d="M188.093,171h-38c-2.761,0-5-2.239-5-5v-1c0-2.761,2.239-5,5-5h38c2.761,0,5,2.239,5,5v1
		C193.093,168.761,190.855,171,188.093,171z"/>
	<path class="st7" d="M157.03,128.96c1.1,8,0.53,19.31-6.94,31.04h38c-7.46-11.73-8.04-23.03-6.95-31.03L157.03,128.96z"/>
	<path class="st7" d="M195.593,78.125h-53c-2.761,0-5-2.239-5-5v-4c0-2.761,2.239-5,5-5h53c2.761,0,5,2.239,5,5v4
		C200.593,75.886,198.355,78.125,195.593,78.125z"/>
	<path class="st10" d="M169.093,132.125L169.093,132.125c-13.6,0-24.625-11.025-24.625-24.625V78.125h49.25V107.5
		C193.718,121.1,182.693,132.125,169.093,132.125z"/>
	<g>
		<path class="st8" d="M49.879,75.274h0.785c1.384,0,2.506,1.122,2.506,2.506v33.64c0,1.384,1.122,2.506,2.506,2.506h0.543
			c1.384,0,2.506-1.122,2.506-2.506V72.768c0-1.384-1.122-2.506-2.506-2.506h-6.341c-1.384,0-2.506,1.122-2.506,2.506
			S48.494,75.274,49.879,75.274z"/>
		<path class="st8" d="M85.361,69.598c-12.079,0-15.219,9.542-15.219,22.044c0,12.683,3.14,22.285,15.219,22.285
			c12.019,0,15.159-9.603,15.159-22.285C100.519,79.14,97.379,69.598,85.361,69.598z M85.361,108.914
			c-8.636,0-9.784-7.852-9.784-17.272c0-9.06,1.147-17.031,9.784-17.031c8.576,0,9.724,7.972,9.724,17.031
			C95.084,101.063,93.936,108.914,85.361,108.914z"/>
		<path class="st8" d="M111.119,75.274h0.785c1.384,0,2.506,1.122,2.506,2.506v33.64c0,1.384,1.122,2.506,2.506,2.506h0.543
			c1.384,0,2.506-1.122,2.506-2.506V72.768c0-1.384-1.122-2.506-2.506-2.506h-6.341c-1.384,0-2.506,1.122-2.506,2.506
			S109.735,75.274,111.119,75.274z"/>
		<path class="st8" d="M59.994,123.907c-12.079,0-15.219,9.542-15.219,22.044c0,12.683,3.14,22.285,15.219,22.285
			c12.019,0,15.159-9.603,15.159-22.285C75.153,133.449,72.013,123.907,59.994,123.907z M59.994,163.224
			c-8.636,0-9.784-7.852-9.784-17.272c0-9.06,1.147-17.031,9.784-17.031c8.576,0,9.724,7.972,9.724,17.031
			C69.718,155.372,68.57,163.224,59.994,163.224z"/>
		<path class="st8" d="M88.591,124.571H82.25c-1.384,0-2.506,1.122-2.506,2.506s1.122,2.506,2.506,2.506h0.785
			c1.384,0,2.506,1.122,2.506,2.506v33.64c0,1.384,1.122,2.506,2.506,2.506h0.543c1.384,0,2.506-1.122,2.506-2.506v-38.652
			C91.098,125.693,89.976,124.571,88.591,124.571z"/>
		<path class="st8" d="M114.229,123.907c-12.079,0-15.219,9.542-15.219,22.044c0,12.683,3.14,22.285,15.219,22.285
			c12.019,0,15.159-9.603,15.159-22.285C129.388,133.449,126.248,123.907,114.229,123.907z M114.229,163.224
			c-8.636,0-9.784-7.852-9.784-17.272c0-9.06,1.148-17.031,9.784-17.031c8.576,0,9.724,7.972,9.724,17.031
			C123.953,155.372,122.805,163.224,114.229,163.224z"/>
		<path class="st8" d="M245.534,182.42h-13.989V60.024c0-10.697-8.703-19.4-19.399-19.4H43.855c-10.697,0-19.399,8.703-19.399,19.4
			V182.42H10.466c-4.45,0-8.07,3.62-8.07,8.07v4.675c0,11.145,9.066,20.211,20.211,20.211h210.786
			c11.145,0,20.211-9.066,20.211-20.211v-4.675C253.604,186.04,249.984,182.42,245.534,182.42z M28.456,60.024
			c0-8.492,6.908-15.4,15.399-15.4h168.29c8.491,0,15.399,6.908,15.399,15.4V182.42h-6.794V58.417c0-3.859-3.14-7-7-7H42.25
			c-3.86,0-7,3.141-7,7V182.42h-6.794V60.024z M39.25,182.417v-124c0-1.654,1.346-3,3-3h171.5c1.654,0,3,1.346,3,3v124H39.25z
			 M154.13,186.42v3.111c0,4.065-3.307,7.373-7.373,7.373h-37.515c-4.065,0-7.373-3.308-7.373-7.373v-3.111H154.13z
			 M249.604,195.165c0,8.938-7.272,16.211-16.211,16.211H22.607c-8.939,0-16.211-7.272-16.211-16.211v-4.675
			c0-2.244,1.826-4.07,4.07-4.07c10.781,0,77.813,0,87.404,0v3.111c0,6.271,5.102,11.373,11.373,11.373h37.515
			c6.271,0,11.373-5.102,11.373-11.373v-3.111c9.575,0,76.621,0,87.404,0c2.244,0,4.07,1.826,4.07,4.07V195.165z"/>
		<path class="st8" d="M209.848,86h-14.13v-5.881c3.802-0.068,6.875-3.176,6.875-6.994v-4c0-3.859-3.14-7-7-7h-53
			c-3.86,0-7,3.141-7,7v4c0,3.817,3.073,6.926,6.875,6.994V86h-14.16c-0.974,0-1.806,0.701-1.971,1.661
			c-0.138,0.806-3.089,19.831,21.138,35.352c2.062,2.865,4.675,5.308,7.688,7.165c0.813,7.042,0.235,17.258-6.27,27.932
			c-3.289,0.572-5.8,3.44-5.8,6.89v1c0,3.859,3.14,7,7,7h38c3.86,0,7-3.141,7-7v-1c0-3.452-2.514-6.322-5.807-6.891
			c-6.496-10.674-7.082-20.884-6.279-27.921c3.033-1.867,5.66-4.326,7.73-7.212c24.165-15.514,21.22-34.51,21.081-35.315
			C211.654,86.701,210.822,86,209.848,86z M139.593,73.125v-4c0-1.654,1.346-3,3-3h53c1.654,0,3,1.346,3,3v4c0,1.654-1.346,3-3,3
			c-10.17,0-42.786,0-53,0C140.939,76.125,139.593,74.779,139.593,73.125z M130.152,90h12.316v17.5c0,2.7,0.407,5.306,1.158,7.764
			C131.159,104.842,130.062,94.063,130.152,90z M191.093,165v1c0,1.654-1.346,3-3,3h-38c-1.654,0-3-1.346-3-3v-1
			c0-1.654,1.346-3,3-3h38C189.748,162,191.093,163.346,191.093,165z M184.608,158h-31.034c5.23-9.607,6.215-18.752,5.787-25.725
			c6.255,2.466,13.195,2.467,19.452,0.005C178.393,139.249,179.382,148.392,184.608,158z M191.718,107.5
			c0,12.476-10.149,22.625-22.625,22.625s-22.625-10.149-22.625-22.625V80.125h45.25V107.5z M194.575,115.214
			c0.741-2.443,1.144-5.032,1.144-7.714V90h12.271C208.041,94.051,206.879,104.857,194.575,115.214z"/>
	</g>
</g>
</svg>
